<?xml version="1.0" encoding="UTF-8" standalone="no"?>
<!-- Created with Inkscape (http://www.inkscape.org/) -->

<svg
   xmlns:dc="http://purl.org/dc/elements/1.1/"
   xmlns:cc="http://creativecommons.org/ns#"
   xmlns:rdf="http://www.w3.org/1999/02/22-rdf-syntax-ns#"
   xmlns:svg="http://www.w3.org/2000/svg"
   xmlns="http://www.w3.org/2000/svg"
   xmlns:sodipodi="http://sodipodi.sourceforge.net/DTD/sodipodi-0.dtd"
   xmlns:inkscape="http://www.inkscape.org/namespaces/inkscape"
   width="127.14152"
   height="55.180202"
   viewBox="0 0 33.639527 14.599762"
   version="1.1"
   id="svg8"
   inkscape:version="0.92.4 (5da689c313, 2019-01-14)"
   sodipodi:docname="Juntos-Por-El-Cambio-Logo.svg">
  <defs
     id="defs2">
    <clipPath
       id="clipPath4582"
       clipPathUnits="userSpaceOnUse">
      <path
         inkscape:connector-curvature="0"
         id="path4580"
         d="M 0,841.89 H 595.276 V 0 H 0 Z" />
    </clipPath>
  </defs>
  <sodipodi:namedview
     id="base"
     pagecolor="#ffffff"
     bordercolor="#666666"
     borderopacity="1.0"
     inkscape:pageopacity="0.0"
     inkscape:pageshadow="2"
     inkscape:zoom="3.959798"
     inkscape:cx="105.8312"
     inkscape:cy="45.373708"
     inkscape:document-units="mm"
     inkscape:current-layer="g4891"
     showgrid="false"
     fit-margin-top="5"
     fit-margin-left="10"
     fit-margin-right="10"
     fit-margin-bottom="5"
     units="px"
     inkscape:window-width="1920"
     inkscape:window-height="1017"
     inkscape:window-x="-8"
     inkscape:window-y="-8"
     inkscape:window-maximized="1" />
  <metadata
     id="metadata5">
    <rdf:RDF>
      <cc:Work
         rdf:about="">
        <dc:format>image/svg+xml</dc:format>
        <dc:type
           rdf:resource="http://purl.org/dc/dcmitype/StillImage" />
        <dc:title></dc:title>
      </cc:Work>
    </rdf:RDF>
  </metadata>
  <g
     inkscape:label="Layer 1"
     inkscape:groupmode="layer"
     id="layer1"
     transform="translate(-101.15586,-148.90097)">
    <g
       transform="matrix(0.35277777,0,0,-0.35277777,259.36898,467.42266)"
       inkscape:label="plataforma-juntos-por-el-cambio-2019"
       id="g4526">
      <g
         id="g4891"
         transform="matrix(0.5639067,0,0,0.5639067,-192.30761,392.11161)">
        <path
           d="m -422.68915,839.05716 h 15.322 v 5.013 h -15.322 z"
           style="fill:#fcd105;fill-opacity:1;fill-rule:nonzero;stroke:none"
           id="path4558"
           inkscape:connector-curvature="0" />
        <path
           d="m -407.35715,839.05716 h 15.324 v 5.013 h -15.324 z"
           style="fill:#f9b10b;fill-opacity:1;fill-rule:nonzero;stroke:none"
           id="path4560"
           inkscape:connector-curvature="0" />
        <path
           d="m -392.02215,839.05716 h 15.323 v 5.013 h -15.323 z"
           style="fill:#f04344;fill-opacity:1;fill-rule:nonzero;stroke:none"
           id="path4562"
           inkscape:connector-curvature="0" />
        <path
           d="m -376.70715,839.05716 h 15.34 v 5.013 h -15.34 z"
           style="fill:#f04dad;fill-opacity:1;fill-rule:nonzero;stroke:none"
           id="path4564"
           inkscape:connector-curvature="0" />
        <path
           d="m -361.36815,839.05716 h 15.335 v 5.013 h -15.335 z"
           style="fill:#ef34a2;fill-opacity:1;fill-rule:nonzero;stroke:none"
           id="path4566"
           inkscape:connector-curvature="0" />
        <path
           d="m -346.02615,839.05716 h 15.327 v 5.013 h -15.327 z"
           style="fill:#2b3580;fill-opacity:1;fill-rule:nonzero;stroke:none"
           id="path4568"
           inkscape:connector-curvature="0" />
        <path
           d="m -330.70715,839.05716 h 15.341 v 5.013 h -15.341 z"
           style="fill:#376183;fill-opacity:1;fill-rule:nonzero;stroke:none"
           id="path4570"
           inkscape:connector-curvature="0" />
        <path
           d="m -315.41115,839.05716 h 13.038 v 5.013 h -13.038 z"
           style="fill:#91d3ed;fill-opacity:1;fill-rule:nonzero;stroke:none"
           id="path4572"
           inkscape:connector-curvature="0" />
        <path
           d="m -435.49815,839.05716 h 12.814 v 5.013 h -12.814 z"
           style="fill:#f1f58d;fill-opacity:1;fill-rule:nonzero;stroke:none"
           id="path4574"
           inkscape:connector-curvature="0" />
        <g
           id="g4584"
           transform="translate(-299.86515,841.56316)">
          <path
             d="m 0,0 c 0,-1.385 -1.122,-2.507 -2.507,-2.507 -1.385,0 -2.508,1.122 -2.508,2.507 0,1.385 1.123,2.508 2.508,2.508 C -1.122,2.508 0,1.385 0,0"
             style="fill:#91d3ed;fill-opacity:1;fill-rule:nonzero;stroke:none"
             id="path4586"
             inkscape:connector-curvature="0" />
        </g>
        <g
           id="g4588"
           transform="translate(-433.24185,841.56316)">
          <path
             d="m 0,0 c 0,-1.385 -1.123,-2.507 -2.507,-2.507 -1.385,0 -2.507,1.122 -2.507,2.507 0,1.385 1.122,2.508 2.507,2.508 C -1.123,2.508 0,1.385 0,0"
             style="fill:#f1f58d;fill-opacity:1;fill-rule:nonzero;stroke:none"
             id="path4590"
             inkscape:connector-curvature="0" />
        </g>
        <g
           id="g4592"
           transform="translate(-440.97815,862.29016)">
          <path
             d="m 0,0 v 0.074 c 0,7.32 5.518,13.317 13.427,13.317 3.863,0 6.473,-1.031 8.608,-2.613 0.588,-0.441 1.102,-1.251 1.102,-2.244 0,-1.545 -1.25,-2.76 -2.795,-2.76 -0.773,0 -1.287,0.295 -1.692,0.553 -1.582,1.178 -3.238,1.84 -5.261,1.84 -4.339,0 -7.467,-3.605 -7.467,-8.02 V 0.074 c 0,-4.415 3.053,-8.094 7.467,-8.094 2.392,0 3.973,0.737 5.592,2.024 0.441,0.368 1.03,0.625 1.693,0.625 1.433,0 2.648,-1.177 2.648,-2.61 0,-0.884 -0.442,-1.583 -0.956,-2.024 -2.318,-2.023 -5.04,-3.238 -9.16,-3.238 C 5.628,-13.243 0,-7.394 0,0"
             style="fill:#4e5156;fill-opacity:1;fill-rule:nonzero;stroke:none"
             id="path4594"
             inkscape:connector-curvature="0" />
        </g>
        <g
           id="g4596"
           transform="translate(-400.40515,860.26616)">
          <path
             d="M 0,0 -3.568,8.498 -7.137,0 Z m -15.929,-7.136 8.975,20.269 c 0.626,1.397 1.767,2.244 3.312,2.244 h 0.331 c 1.544,0 2.649,-0.847 3.274,-2.244 L 8.938,-7.136 c 0.184,-0.405 0.295,-0.772 0.295,-1.14 0,-1.508 -1.177,-2.722 -2.685,-2.722 -1.325,0 -2.207,0.771 -2.722,1.949 l -1.73,4.046 H -9.233 l -1.803,-4.23 c -0.479,-1.103 -1.434,-1.765 -2.611,-1.765 -1.472,0 -2.613,1.177 -2.613,2.647 0,0.406 0.148,0.81 0.331,1.215"
             style="fill:#4e5156;fill-opacity:1;fill-rule:nonzero;stroke:none"
             id="path4598"
             inkscape:connector-curvature="0" />
        </g>
        <g
           id="g4600"
           transform="translate(-388.93015,872.55316)">
          <path
             d="m 0,0 c 0,1.583 1.25,2.833 2.832,2.833 h 0.625 c 1.214,0 2.06,-0.626 2.575,-1.472 l 6.842,-11.145 6.879,11.181 c 0.589,0.957 1.397,1.436 2.538,1.436 h 0.626 c 1.581,0 2.833,-1.25 2.833,-2.833 v -20.451 c 0,-1.583 -1.252,-2.833 -2.833,-2.833 -1.545,0 -2.796,1.286 -2.796,2.833 v 12.837 l -4.966,-7.652 c -0.589,-0.882 -1.324,-1.434 -2.354,-1.434 -1.03,0 -1.766,0.552 -2.354,1.434 l -4.892,7.541 v -12.8 c 0,-1.545 -1.252,-2.759 -2.797,-2.759 -1.544,0 -2.758,1.214 -2.758,2.759 z"
             style="fill:#4e5156;fill-opacity:1;fill-rule:nonzero;stroke:none"
             id="path4602"
             inkscape:connector-curvature="0" />
        </g>
        <g
           id="g4604"
           transform="translate(-346.96015,854.45516)">
          <path
             d="m 0,0 c 2.502,0 4.01,0.883 4.01,2.795 v 0.074 c 0,1.729 -1.288,2.795 -4.194,2.795 H -6.731 V 0 Z m -1.508,10.373 c 2.502,0 4.083,0.81 4.083,2.722 v 0.074 c 0,1.692 -1.325,2.649 -3.716,2.649 h -5.59 V 10.373 Z M -12.25,17.95 c 0,1.583 1.252,2.833 2.833,2.833 h 9.123 c 2.943,0 5.259,-0.809 6.731,-2.28 1.177,-1.177 1.767,-2.612 1.767,-4.377 V 14.052 C 8.204,11.146 6.659,9.527 4.819,8.497 7.798,7.356 9.638,5.628 9.638,2.17 V 2.097 C 9.638,-2.612 5.813,-4.966 0,-4.966 h -9.417 c -1.581,0 -2.833,1.25 -2.833,2.832 z"
             style="fill:#4e5156;fill-opacity:1;fill-rule:nonzero;stroke:none"
             id="path4606"
             inkscape:connector-curvature="0" />
        </g>
        <g
           id="g4608"
           transform="translate(-334.60315,872.62716)">
          <path
             d="M 0,0 C 0,1.582 1.251,2.832 2.833,2.832 4.414,2.832 5.666,1.582 5.666,0 v -20.525 c 0,-1.583 -1.252,-2.833 -2.833,-2.833 -1.582,0 -2.833,1.25 -2.833,2.833 z"
             style="fill:#4e5156;fill-opacity:1;fill-rule:nonzero;stroke:none"
             id="path4610"
             inkscape:connector-curvature="0" />
        </g>
        <g
           id="g4612"
           transform="translate(-304.40215,862.29016)">
          <path
             d="m 0,0 v 0.074 c 0,4.414 -3.237,8.093 -7.798,8.093 -4.561,0 -7.725,-3.605 -7.725,-8.02 V 0.074 c 0,-4.415 3.237,-8.094 7.798,-8.094 C -3.163,-8.02 0,-4.414 0,0 m -21.445,0 v 0.074 c 0,7.32 5.775,13.317 13.72,13.317 7.947,0 13.648,-5.923 13.648,-13.244 V 0.074 c 0,-7.321 -5.776,-13.317 -13.721,-13.317 -7.945,0 -13.647,5.924 -13.647,13.243"
             style="fill:#4e5156;fill-opacity:1;fill-rule:nonzero;stroke:none"
             id="path4614"
             inkscape:connector-curvature="0" />
        </g>
        <g
           id="g4616"
           transform="translate(-439.81455,883.84216)">
          <path
             d="m 0,0 c -0.251,0.229 -0.481,0.619 -0.481,1.054 0,0.756 0.596,1.351 1.352,1.351 0.367,0 0.619,-0.114 0.871,-0.32 0.779,-0.803 1.535,-1.237 2.612,-1.237 1.558,0 2.589,1.007 2.589,3.162 v 9.21 c 0,0.779 0.641,1.397 1.42,1.397 0.78,0 1.421,-0.618 1.421,-1.397 V 3.918 C 9.784,2.017 9.21,0.596 8.271,-0.343 7.332,-1.284 5.98,-1.765 4.376,-1.765 2.429,-1.765 1.008,-1.008 0,0"
             style="fill:#4e5156;fill-opacity:1;fill-rule:nonzero;stroke:none"
             id="path4618"
             inkscape:connector-curvature="0" />
        </g>
        <g
           id="g4620"
           transform="translate(-416.42315,883.56616)">
          <path
             d="m 0,0 c 0,-0.756 -0.619,-1.375 -1.397,-1.375 -0.757,0 -1.399,0.597 -1.399,1.375 v 0.619 c -0.779,-1.145 -1.902,-2.13 -3.78,-2.13 -2.726,0 -4.307,1.832 -4.307,4.651 v 6.437 c 0,0.779 0.618,1.398 1.374,1.398 0.78,0 1.397,-0.619 1.397,-1.398 V 3.964 c 0,-1.879 0.94,-2.933 2.59,-2.933 1.604,0 2.726,1.1 2.726,2.979 v 5.567 c 0,0.779 0.619,1.398 1.399,1.398 C -0.642,10.975 0,10.356 0,9.577 Z"
             style="fill:#4e5156;fill-opacity:1;fill-rule:nonzero;stroke:none"
             id="path4622"
             inkscape:connector-curvature="0" />
        </g>
        <g
           id="g4624"
           transform="translate(-413.65415,893.14316)">
          <path
             d="M 0,0 C 0,0.779 0.596,1.397 1.375,1.397 2.154,1.397 2.773,0.779 2.773,0 v -0.596 c 0.779,1.123 1.902,2.108 3.78,2.108 2.726,0 4.307,-1.832 4.307,-4.628 v -6.461 c 0,-0.778 -0.596,-1.375 -1.374,-1.375 -0.78,0 -1.398,0.597 -1.398,1.375 v 5.613 c 0,1.879 -0.939,2.956 -2.589,2.956 -1.604,0 -2.726,-1.123 -2.726,-3.002 v -5.567 c 0,-0.778 -0.619,-1.375 -1.398,-1.375 -0.756,0 -1.375,0.597 -1.375,1.375 z"
             style="fill:#4e5156;fill-opacity:1;fill-rule:nonzero;stroke:none"
             id="path4626"
             inkscape:connector-curvature="0" />
        </g>
        <g
           id="g4628"
           transform="translate(-399.56515,885.65116)">
          <path
             d="m 0,0 v 6.369 h -0.459 c -0.664,0 -1.191,0.527 -1.191,1.192 0,0.665 0.527,1.191 1.191,1.191 H 0 v 2.062 c 0,0.756 0.618,1.375 1.397,1.375 0.756,0 1.375,-0.619 1.375,-1.375 V 8.752 h 2.176 c 0.665,0 1.215,-0.526 1.215,-1.191 0,-0.665 -0.55,-1.192 -1.215,-1.192 H 2.772 V 0.436 c 0,-1.078 0.55,-1.513 1.489,-1.513 0.321,0 0.596,0.069 0.687,0.069 0.619,0 1.169,-0.505 1.169,-1.144 0,-0.505 -0.344,-0.918 -0.734,-1.077 C 4.789,-3.437 4.215,-3.552 3.481,-3.552 1.443,-3.552 0,-2.657 0,0"
             style="fill:#4e5156;fill-opacity:1;fill-rule:nonzero;stroke:none"
             id="path4630"
             inkscape:connector-curvature="0" />
        </g>
        <g
           id="g4632"
           transform="translate(-382.29215,888.28716)">
          <path
             d="m 0,0 v 0.046 c 0,2.13 -1.536,3.893 -3.711,3.893 -2.224,0 -3.644,-1.741 -3.644,-3.847 V 0.046 c 0,-2.109 1.535,-3.872 3.689,-3.872 C -1.42,-3.826 0,-2.086 0,0 m -10.127,0 v 0.046 c 0,3.459 2.749,6.322 6.461,6.322 3.712,0 6.439,-2.817 6.439,-6.276 V 0.046 c 0,-3.438 -2.75,-6.301 -6.484,-6.301 -3.69,0 -6.416,2.817 -6.416,6.255"
             style="fill:#4e5156;fill-opacity:1;fill-rule:nonzero;stroke:none"
             id="path4634"
             inkscape:connector-curvature="0" />
        </g>
        <g
           id="g4636"
           transform="translate(-377.85015,883.52116)">
          <path
             d="m 0,0 c -0.297,0.159 -0.527,0.503 -0.527,0.962 0,0.618 0.481,1.122 1.123,1.122 0.229,0 0.435,-0.069 0.596,-0.159 1.168,-0.78 2.383,-1.169 3.483,-1.169 1.191,0 1.879,0.504 1.879,1.305 V 2.107 C 6.554,3.046 5.27,3.368 3.849,3.803 2.063,4.308 0.069,5.04 0.069,7.354 v 0.045 c 0,2.291 1.902,3.69 4.307,3.69 1.284,0 2.636,-0.367 3.803,-0.985 C 8.57,9.897 8.844,9.53 8.844,9.05 8.844,8.408 8.34,7.927 7.698,7.927 7.47,7.927 7.332,7.973 7.148,8.064 6.164,8.568 5.156,8.89 4.307,8.89 3.231,8.89 2.613,8.385 2.613,7.698 V 7.652 C 2.613,6.759 3.918,6.392 5.338,5.933 7.104,5.385 9.097,4.581 9.097,2.405 V 2.359 C 9.097,-0.184 7.126,-1.444 4.606,-1.444 3.071,-1.444 1.397,-0.964 0,0"
             style="fill:#4e5156;fill-opacity:1;fill-rule:nonzero;stroke:none"
             id="path4638"
             inkscape:connector-curvature="0" />
        </g>
        <g
           id="g4640"
           transform="translate(-350.72615,888.33316)">
          <path
             d="m 0,0 v 0.046 c 0,2.337 -1.581,3.871 -3.459,3.871 -1.879,0 -3.529,-1.558 -3.529,-3.871 V 0 c 0,-2.315 1.65,-3.872 3.529,-3.872 C -1.558,-3.872 0,-2.383 0,0 m -9.691,4.811 c 0,0.779 0.594,1.397 1.374,1.397 0.779,0 1.398,-0.618 1.398,-1.397 V 4.055 c 0.893,1.26 2.154,2.267 4.125,2.267 2.84,0 5.612,-2.244 5.612,-6.276 L 2.818,0 c 0,-4.01 -2.749,-6.277 -5.612,-6.277 -2.017,0 -3.278,1.006 -4.125,2.13 v -4.285 c 0,-0.779 -0.619,-1.375 -1.398,-1.375 -0.757,0 -1.374,0.596 -1.374,1.375 z"
             style="fill:#4e5156;fill-opacity:1;fill-rule:nonzero;stroke:none"
             id="path4642"
             inkscape:connector-curvature="0" />
        </g>
        <g
           id="g4644"
           transform="translate(-336.27215,888.28716)">
          <path
             d="m 0,0 v 0.046 c 0,2.13 -1.535,3.893 -3.711,3.893 -2.223,0 -3.643,-1.741 -3.643,-3.847 V 0.046 c 0,-2.109 1.535,-3.872 3.689,-3.872 C -1.42,-3.826 0,-2.086 0,0 m -10.126,0 v 0.046 c 0,3.459 2.749,6.322 6.461,6.322 3.711,0 6.438,-2.817 6.438,-6.276 V 0.046 c 0,-3.438 -2.75,-6.301 -6.484,-6.301 -3.689,0 -6.415,2.817 -6.415,6.255"
             style="fill:#4e5156;fill-opacity:1;fill-rule:nonzero;stroke:none"
             id="path4646"
             inkscape:connector-curvature="0" />
        </g>
        <g
           id="g4648"
           transform="translate(-331.37015,893.14316)">
          <path
             d="M 0,0 C 0,0.779 0.595,1.397 1.375,1.397 2.153,1.397 2.772,0.779 2.772,0 v -1.237 c 0.642,1.512 1.832,2.658 3.047,2.658 0.871,0 1.375,-0.573 1.375,-1.375 0,-0.733 -0.481,-1.215 -1.1,-1.329 -1.971,-0.344 -3.322,-1.856 -3.322,-4.72 v -3.574 c 0,-0.756 -0.619,-1.375 -1.397,-1.375 -0.757,0 -1.375,0.597 -1.375,1.375 z"
             style="fill:#4e5156;fill-opacity:1;fill-rule:nonzero;stroke:none"
             id="path4650"
             inkscape:connector-curvature="0" />
        </g>
        <g
           id="g4652"
           transform="translate(-308.11815,889.20316)">
          <path
             d="M 0,0 C -0.184,1.786 -1.238,3.185 -3.07,3.185 -4.767,3.185 -5.957,1.879 -6.21,0 Z m -2.75,-7.171 c -3.504,0 -6.209,2.542 -6.209,6.277 v 0.046 c 0,3.459 2.452,6.3 5.912,6.3 3.848,0 5.75,-3.161 5.75,-5.956 0,-0.778 -0.596,-1.329 -1.306,-1.329 h -7.584 c 0.299,-1.97 1.696,-3.07 3.483,-3.07 1.169,0 2.085,0.412 2.864,1.054 0.206,0.16 0.39,0.251 0.71,0.251 0.619,0 1.1,-0.481 1.1,-1.122 0,-0.344 -0.16,-0.641 -0.367,-0.848 -1.099,-0.986 -2.475,-1.603 -4.353,-1.603"
             style="fill:#4e5156;fill-opacity:1;fill-rule:nonzero;stroke:none"
             id="path4654"
             inkscape:connector-curvature="0" />
        </g>
        <g
           id="g4656"
           transform="translate(-303.10415,897.77216)">
          <path
             d="M 0,0 C 0,0.756 0.596,1.374 1.375,1.374 2.154,1.374 2.773,0.756 2.773,0 v -14.206 c 0,-0.778 -0.619,-1.375 -1.398,-1.375 -0.756,0 -1.375,0.597 -1.375,1.375 z"
             style="fill:#4e5156;fill-opacity:1;fill-rule:nonzero;stroke:none"
             id="path4658"
             inkscape:connector-curvature="0" />
        </g>
      </g>
    </g>
  </g>
</svg>
