<svg xmlns="http://www.w3.org/2000/svg" xmlns:xlink="http://www.w3.org/1999/xlink" width="55.975" height="61.933" viewBox="0 0 55.975 61.933">
  <defs>
    <radialGradient id="radial-gradient" cx="0.702" cy="0.92" r="1.237" gradientTransform="matrix(-0.067, -0.998, 1.069, -0.059, -0.234, 1.674)" gradientUnits="objectBoundingBox">
      <stop offset="0" stop-color="#ffd306"/>
      <stop offset="0.372" stop-color="#ffed00"/>
      <stop offset="0.469" stop-color="#fde103"/>
      <stop offset="0.64" stop-color="#fac30d"/>
      <stop offset="0.865" stop-color="#f4931e"/>
      <stop offset="0.913" stop-color="#f38822"/>
      <stop offset="1" stop-color="#f38023"/>
    </radialGradient>
  </defs>
  <g id="Group_304" data-name="Group 304" transform="translate(-109 66)">
    <g id="PRO_1" data-name="PRO 1" transform="translate(109 -66)">
      <g id="PRO">
        <path id="Path_1" data-name="Path 1" d="M1371.881,456.743a8.435,8.435,0,0,0-4.589-7.509v0l-38.652-22.259h0a8.436,8.436,0,0,0-12.73,7.271v45.042a8.435,8.435,0,0,0,12.959,7.129l.006,0,38.4-22.15v-.008a8.435,8.435,0,0,0,4.608-7.516" transform="translate(-1315.906 -425.796)" fill="url(#radial-gradient)"/>
        <g id="Group_1" data-name="Group 1" transform="translate(7.113 22.957)">
          <path id="Path_2" data-name="Path 2" d="M1354.723,513.008a6.09,6.09,0,0,0-4.818-2.28,4.421,4.421,0,0,0-3.7,1.462,1.639,1.639,0,0,0-.626-1.33,2.252,2.252,0,0,0-1.448-.5,2,2,0,0,0-1.384.5,1.977,1.977,0,0,0-.641,1.57v18.28a2.239,2.239,0,0,0,.615,1.7,2.046,2.046,0,0,0,1.463.584,2.316,2.316,0,0,0,1.568-.573,1.91,1.91,0,0,0,.667-1.525v-5.994a6.147,6.147,0,0,0,3.484,1.06,5.909,5.909,0,0,0,4.974-2.322,8.045,8.045,0,0,0,1.622-5.149,8.676,8.676,0,0,0-1.774-5.489m-3.064,7.771a2.524,2.524,0,0,1-2.146,1.1,2.736,2.736,0,0,1-2.3-1.123,4.3,4.3,0,0,1-.029-4.937,2.806,2.806,0,0,1,2.331-1.121,2.455,2.455,0,0,1,2.118,1.148,4.367,4.367,0,0,1,.716,2.535,4.017,4.017,0,0,1-.688,2.4" transform="translate(-1342.105 -510.356)" fill="#333"/>
          <path id="Path_3" data-name="Path 3" d="M1441.463,512.44a7.264,7.264,0,1,0,7.264,7.264,7.263,7.263,0,0,0-7.264-7.264m0,10.7a3.432,3.432,0,1,1,3.432-3.432,3.432,3.432,0,0,1-3.432,3.432" transform="translate(-1409.196 -511.874)" fill="#333"/>
          <path id="Path_4" data-name="Path 4" d="M1408.1,510.828h0a3.774,3.774,0,0,0-3.406,1.577,2.138,2.138,0,0,0-4.252.322v11.307a2.14,2.14,0,0,0,4.28,0v-7.06a1.771,1.771,0,0,1,1.337-1.8,5.581,5.581,0,0,1,1.8-.084,2.176,2.176,0,0,0,2.14-2.14,2.14,2.14,0,0,0-1.9-2.125" transform="translate(-1384.604 -510.524)" fill="#333"/>
        </g>
      </g>
    </g>
  </g>
</svg>
